<?xml version="1.0" standalone="no"?>
<!DOCTYPE svg PUBLIC "-//W3C//DTD SVG 20010904//EN"
 "http://www.w3.org/TR/2001/REC-SVG-20010904/DTD/svg10.dtd">
<svg version="1.0" xmlns="http://www.w3.org/2000/svg"
 width="512.000000pt" height="512.000000pt" viewBox="0 0 512.000000 512.000000"
 preserveAspectRatio="xMidYMid meet">
<metadata>
Created by potrace 1.14, written by Peter Selinger 2001-2017
</metadata>
<g transform="translate(0.000000,512.000000) scale(0.100000,-0.100000)"
fill="#000000" stroke="none">
<path d="M3287 4694 c-1 -1 -32 -4 -67 -5 -159 -6 -366 -63 -544 -151 -271
-134 -506 -370 -647 -651 -37 -73 -101 -248 -113 -307 -2 -14 -9 -47 -15 -75
-47 -241 -24 -500 69 -776 11 -33 10 -39 -16 -80 -97 -154 -158 -371 -159
-561 0 -65 3 -81 20 -98 52 -51 109 -28 182 73 56 77 205 237 221 237 5 0 33
-26 63 -58 315 -334 756 -490 1234 -438 l70 8 0 -155 c0 -176 5 -190 75 -204
l38 -8 -40 -82 -41 -83 -1058 0 -1057 0 -40 83 -40 82 35 6 c19 3 44 16 56 28
21 21 22 27 23 344 1 348 -2 368 -52 387 -14 6 -310 10 -725 9 l-701 0 -30
-29 -29 -30 4 -402 c2 -222 6 -412 9 -423 4 -11 14 -55 23 -97 8 -43 22 -96
30 -118 8 -22 15 -44 16 -48 18 -79 92 -240 156 -341 54 -84 168 -191 248
-232 148 -77 -10 -72 2060 -72 1018 0 1869 3 1893 6 74 11 125 28 192 63 224
117 383 389 465 794 22 108 23 139 24 496 l1 380 -26 25 -26 24 -316 2 c-174
2 -334 3 -356 3 l-39 0 39 43 c183 199 310 457 360 727 22 122 26 341 9 458
-13 90 -65 274 -101 359 -32 75 -145 278 -163 293 -3 3 -32 37 -63 75 -161
195 -370 342 -613 430 -109 40 -158 52 -295 75 -55 9 -237 20 -243 14z"/>
</g>
</svg>
